# xmcd CD database file
#
# Track frame offsets:
#	150
#	15167
#	29781
#	44096
#	59087
#	75377
#	91082
#	104462
#	121170
#	136828
#	150357
#	166130
#	179854
#	195805
#	211526
#	228900
#	246909
#	264336
#	280270
#	291754
#
# Disc length: 4179 seconds
#
# Revision: 0
# Processed by: cddbd v1.5.1PL0 Copyright (c) Steve Scherf et al.
# Submitted via: CDex 1.51
#
DISCID=07105114
DTITLE=Nitty Gritty Dirt Band - Plain Dirt Faschion - Partners Brohters and Friends 
DYEAR=1900
DGENRE=Country
TTITLE0=Long hard hoad
TTITLE1=High horse
TTITLE2=Face on the cutting room floor
TTITLE3=Two out of three aint bad
TTITLE4=Must be love
TTITLE5=Love only you
TTITLE6=Run with me
TTITLE7=Cadillac ranch
TTITLE8=´Till the fire burned out
TTITLE9=Video tape
TTITLE10=Modern day romance
TTITLE11=Other side of the hill
TTITLE12=Home again in my heart
TTITLE13=Telluride
TTITLE14=Old upright piano
TTITLE15=Partners, brothers and friends
TTITLE16=Redneck riverria
TTITLE17=Queen of the road
TTITLE18=As long as you loving me
TTITLE19=Leon McDuff
EXTD=
EXTT0=
EXTT1=
EXTT2=
EXTT3=
EXTT4=
EXTT5=
EXTT6=
EXTT7=
EXTT8=
EXTT9=
EXTT10=
EXTT11=
EXTT12=
EXTT13=
EXTT14=
EXTT15=
EXTT16=
EXTT17=
EXTT18=
EXTT19=
PLAYORDER=
